<svg width="18" height="18" viewBox="0 0 18 18" fill="none" xmlns="http://www.w3.org/2000/svg">
<path fill-rule="evenodd" clip-rule="evenodd" d="M8.85486 5C8.30257 5 7.85486 5.44772 7.85486 6V10.0003H5.77469C5.4555 10.0003 5.30684 10.3959 5.54706 10.6061L8.62728 13.3013C8.75761 13.4153 8.95221 13.4153 9.08254 13.3013L12.1628 10.6061C12.403 10.3959 12.2543 10.0003 11.9351 10.0003H9.85486V6C9.85486 5.44772 9.40714 5 8.85486 5Z" fill="#070101"/>
<path d="M18 9C18 13.9706 13.9706 18 9 18C4.02944 18 0 13.9706 0 9C0 4.02944 4.02944 0 9 0C13.9706 0 18 4.02944 18 9ZM1.08 9C1.08 13.3741 4.6259 16.92 9 16.92C13.3741 16.92 16.92 13.3741 16.92 9C16.92 4.6259 13.3741 1.08 9 1.08C4.6259 1.08 1.08 4.6259 1.08 9Z" fill="#E8E6F3"/>
</svg>
