<svg width="14" height="14" viewBox="0 0 14 14" fill="none" xmlns="http://www.w3.org/2000/svg">
<g id="&#230;&#154;&#130;&#229;&#129;&#156;">
<path id="Ellipse 19" d="M10.5 0.937822C9.16551 0.167352 7.61407 -0.141247 6.08632 0.059886C4.55856 0.261019 3.13986 0.960644 2.05025 2.05025C0.960643 3.13986 0.261019 4.55856 0.0598859 6.08632C-0.141247 7.61407 0.167352 9.16551 0.937822 10.5C1.70829 11.8345 2.89757 12.8775 4.32122 13.4672C5.74486 14.0568 7.3233 14.1603 8.81173 13.7615C10.3002 13.3627 11.6154 12.4838 12.5535 11.2613C13.4915 10.0388 14 8.54094 14 7H13.16C13.16 8.35603 12.7126 9.67416 11.8871 10.75C11.0616 11.8258 9.90415 12.5991 8.59433 12.9501C7.2845 13.3011 5.89548 13.21 4.64267 12.6911C3.38986 12.1722 2.3433 11.2544 1.66528 10.08C0.98727 8.90565 0.715703 7.54038 0.8927 6.19596C1.0697 4.85153 1.68537 3.60308 2.64422 2.64422C3.60308 1.68537 4.85153 1.0697 6.19596 0.8927C7.54038 0.715703 8.90565 0.98727 10.08 1.66528L10.5 0.937822Z" fill="#F8F8F8"/>
<path id="Ellipse 20" d="M14 7C14 5.77124 13.6766 4.56413 13.0622 3.5C12.4478 2.43587 11.5641 1.5522 10.5 0.937822L10.08 1.66528C11.0164 2.20594 11.7941 2.98356 12.3347 3.92C12.8754 4.85644 13.16 5.91869 13.16 7H14Z" fill="black"/>
<rect id="Rectangle 16" x="4.76001" y="4.76001" width="1.54" height="4.62" fill="#282424"/>
<rect id="Rectangle 17" x="7.84" y="4.76001" width="1.54" height="4.62" fill="#282424"/>
</g>
</svg>
