<svg width="11" height="11" viewBox="0 0 11 11" fill="none" xmlns="http://www.w3.org/2000/svg">
<g id="setting-two" clip-path="url(#clip0_2_12)">
<path id="Vector" d="M11 0H0V11H11V0Z" fill="white" fill-opacity="0.01"/>
<path id="Vector_2" d="M4.19003 9.89338C3.42207 9.66474 2.73849 9.24025 2.19721 8.67781C2.39914 8.43849 2.52082 8.12928 2.52082 7.79164C2.52082 7.03225 1.90522 6.41664 1.14582 6.41664C1.09989 6.41664 1.05448 6.41889 1.0097 6.42329C0.948692 6.12505 0.916656 5.81625 0.916656 5.49998C0.916656 5.02088 0.990166 4.55895 1.12653 4.12484C1.13295 4.12493 1.13938 4.12498 1.14582 4.12498C1.90522 4.12498 2.52082 3.50937 2.52082 2.74998C2.52082 2.53197 2.47009 2.32581 2.37979 2.14268C2.90983 1.64983 3.55677 1.281 4.27443 1.08234C4.50183 1.52808 4.96528 1.83331 5.49999 1.83331C6.0347 1.83331 6.49815 1.52808 6.72555 1.08234C7.44321 1.281 8.09015 1.64983 8.62019 2.14268C8.52989 2.32581 8.47916 2.53197 8.47916 2.74998C8.47916 3.50937 9.09477 4.12498 9.85416 4.12498C9.8606 4.12498 9.86704 4.12493 9.87345 4.12484C10.0098 4.55895 10.0833 5.02088 10.0833 5.49998C10.0833 5.81625 10.0513 6.12505 9.99028 6.42329C9.9455 6.41889 9.9001 6.41664 9.85416 6.41664C9.09477 6.41664 8.47916 7.03225 8.47916 7.79164C8.47916 8.12928 8.60084 8.43849 8.80276 8.67781C8.26149 9.24025 7.57791 9.66474 6.80995 9.89338C6.63271 9.33893 6.11324 8.93748 5.49999 8.93748C4.88674 8.93748 4.36726 9.33893 4.19003 9.89338Z" stroke="#333333" stroke-width="0.916667" stroke-linejoin="round"/>
<path id="Vector_3" d="M5.50001 7.10415C6.38597 7.10415 7.10418 6.38594 7.10418 5.49998C7.10418 4.61402 6.38597 3.89581 5.50001 3.89581C4.61405 3.89581 3.89584 4.61402 3.89584 5.49998C3.89584 6.38594 4.61405 7.10415 5.50001 7.10415Z" stroke="#333333" stroke-width="0.916667" stroke-linejoin="round"/>
</g>
<defs>
<clipPath id="clip0_2_12">
<rect width="11" height="11" fill="white"/>
</clipPath>
</defs>
</svg>
