<svg width="69" height="12" viewBox="0 0 69 12" fill="none" xmlns="http://www.w3.org/2000/svg">
<g id="Group 3">
<path id="Line 1" d="M1 6L68 6.00001" stroke="#E5D8F1" stroke-linecap="round"/>
<line id="Line 2" x1="3.5" y1="4.5" x2="3.5" y2="7.5" stroke="#E5D8F1" stroke-linecap="round"/>
<line id="Line 3" x1="5.5" y1="4.5" x2="5.5" y2="7.5" stroke="#E5D8F1" stroke-linecap="round"/>
<line id="Line 4" x1="15.5" y1="4.5" x2="15.5" y2="7.5" stroke="#E5D8F1" stroke-linecap="round"/>
<line id="Line 5" x1="19.5" y1="3.5" x2="19.5" y2="8.5" stroke="#E5D8F1" stroke-linecap="round"/>
<line id="Line 6" x1="31.5" y1="3.5" x2="31.5" y2="8.5" stroke="#E5D8F1" stroke-linecap="round"/>
<line id="Line 7" x1="35.5" y1="4.5" x2="35.5" y2="7.5" stroke="#E5D8F1" stroke-linecap="round"/>
<line id="Line 8" x1="37.5" y1="3.5" x2="37.5" y2="8.5" stroke="#E5D8F1" stroke-linecap="round"/>
<line id="Line 9" x1="39.5" y1="0.5" x2="39.5" y2="11.5" stroke="#E5D8F1" stroke-linecap="round"/>
<line id="Line 10" x1="41.5" y1="1.5" x2="41.5" y2="10.5" stroke="#E5D8F1" stroke-linecap="round"/>
<line id="Line 11" x1="43.5" y1="3.5" x2="43.5" y2="8.5" stroke="#E5D8F1" stroke-linecap="round"/>
<line id="Line 12" x1="47.5" y1="3.5" x2="47.5" y2="8.5" stroke="#E5D8F1" stroke-linecap="round"/>
<line id="Line 13" x1="49.5" y1="1.5" x2="49.5" y2="10.5" stroke="#E5D8F1" stroke-linecap="round"/>
<line id="Line 14" x1="51.5" y1="3.5" x2="51.5" y2="8.5" stroke="#E5D8F1" stroke-linecap="round"/>
<line id="Line 15" x1="53.5" y1="4.5" x2="53.5" y2="7.5" stroke="#E5D8F1" stroke-linecap="round"/>
<line id="Line 16" x1="55.5" y1="5.5" x2="55.5" y2="6.5" stroke="#E5D8F1" stroke-linecap="round"/>
<line id="Line 17" x1="57.5" y1="3.5" x2="57.5" y2="8.5" stroke="#E5D8F1" stroke-linecap="round"/>
<line id="Line 18" x1="59.5" y1="5.5" x2="59.5" y2="6.5" stroke="#E5D8F1" stroke-linecap="round"/>
</g>
</svg>
